<svg width="100" height="100" viewBox="0 0 100 100" fill="none" xmlns="http://www.w3.org/2000/svg">
<path d="M84.6126 18.7328C78.2791 15.8273 71.4218 13.7184 64.2787 12.5C64.1531 12.5018 64.0333 12.5523 63.9454 12.6406C63.0882 14.1871 62.0882 16.2022 61.4215 17.7486C53.8451 16.6246 46.1402 16.6246 38.5637 17.7486C37.8971 16.1553 36.897 14.1871 35.9922 12.6406C35.9446 12.5469 35.8018 12.5 35.6589 12.5C28.5158 13.7184 21.7061 15.8273 15.325 18.7328C15.2774 18.7328 15.2298 18.7796 15.1822 18.8265C2.22941 37.8997 -1.34211 56.4574 0.419841 74.8276C0.419841 74.9213 0.467461 75.0151 0.562701 75.0619C9.13436 81.2478 17.3727 84.9969 25.5158 87.4806C25.6586 87.5274 25.8015 87.4806 25.8491 87.3869C27.7539 84.8094 29.4683 82.0914 30.9445 79.2327C31.0397 79.0453 30.9445 78.8578 30.754 78.811C28.0396 77.78 25.4681 76.5615 22.9443 75.1557C22.7538 75.0619 22.7538 74.7807 22.8966 74.6402C23.4205 74.2653 23.9443 73.8435 24.4681 73.4686C24.5634 73.3749 24.7062 73.3749 24.8015 73.4217C41.1829 80.7792 58.85 80.7792 75.0409 73.4217C75.1362 73.3749 75.279 73.3749 75.3743 73.4686C75.8981 73.8904 76.4219 74.2653 76.9457 74.687C77.1362 74.8276 77.1362 75.1088 76.8981 75.2025C74.4219 76.6553 71.8028 77.8268 69.0884 78.8578C68.8979 78.9047 68.8503 79.139 68.8979 79.2796C70.4218 82.1382 72.1361 84.8563 73.9933 87.4337C74.1362 87.4806 74.279 87.5274 74.4219 87.4806C82.6126 84.9969 90.8509 81.2478 99.4225 75.0619C99.5178 75.0151 99.5654 74.9213 99.5654 74.8276C101.661 53.5987 96.0891 35.1816 84.8031 18.8265C84.7555 18.7796 84.7079 18.7328 84.6126 18.7328ZM33.4207 63.6274C28.5159 63.6274 24.4205 59.1754 24.4205 53.6925C24.4205 48.2095 28.4206 43.7575 33.4207 43.7575C38.4685 43.7575 42.4686 48.2564 42.421 53.6925C42.421 59.1754 38.4209 63.6274 33.4207 63.6274ZM66.6121 63.6274C61.7072 63.6274 57.6119 59.1754 57.6119 53.6925C57.6119 48.2095 61.612 43.7575 66.6121 43.7575C71.6599 43.7575 75.66 48.2564 75.6124 53.6925C75.6124 59.1754 71.6599 63.6274 66.6121 63.6274Z" fill="black"/>
</svg>
